# MagicaVoxel @ Ephtracy

# group
g panel

# material
mtllib panel.mtl
usemtl palette

# normals
vn -1 0 0
vn 1 0 0
vn 0 0 1
vn 0 0 -1
vn 0 -1 0
vn 0 1 0

# texcoords
vt 0.0410156 0.5
vt 0.0449219 0.5
vt 0.994141 0.5

# verts
v -17.5 0 13.5
v -17.5 0 -13.5
v -17.5 1 13.5
v -17.5 1 -13.5
v -16.5 0 15.5
v -16.5 0 13.5
v -16.5 0 -13.5
v -16.5 0 -15.5
v -16.5 1 15.5
v -16.5 1 13.5
v -16.5 1 -13.5
v -16.5 1 -15.5
v -15.5 0 16.5
v -15.5 0 15.5
v -15.5 0 -15.5
v -15.5 0 -16.5
v -15.5 1 16.5
v -15.5 1 15.5
v -15.5 1 -15.5
v -15.5 1 -16.5
v -13.5 0 17.5
v -13.5 0 16.5
v -13.5 0 -16.5
v -13.5 0 -17.5
v -13.5 1 17.5
v -13.5 1 16.5
v -13.5 1 -16.5
v -13.5 1 -17.5
v 13.5 0 17.5
v 13.5 0 16.5
v 13.5 0 -16.5
v 13.5 0 -17.5
v 13.5 1 17.5
v 13.5 1 16.5
v 13.5 1 -16.5
v 13.5 1 -17.5
v 15.5 0 16.5
v 15.5 0 15.5
v 15.5 0 -15.5
v 15.5 0 -16.5
v 15.5 1 16.5
v 15.5 1 15.5
v 15.5 1 -15.5
v 15.5 1 -16.5
v 16.5 0 15.5
v 16.5 0 13.5
v 16.5 0 -13.5
v 16.5 0 -15.5
v 16.5 1 15.5
v 16.5 1 13.5
v 16.5 1 -13.5
v 16.5 1 -15.5
v 17.5 0 13.5
v 17.5 0 -13.5
v 17.5 1 13.5
v 17.5 1 -13.5
v -13.5 0 17.5
v -13.5 1 17.5
v 13.5 0 17.5
v 13.5 1 17.5
v -15.5 0 16.5
v -15.5 1 16.5
v -13.5 0 16.5
v -13.5 1 16.5
v 13.5 0 16.5
v 13.5 1 16.5
v 15.5 0 16.5
v 15.5 1 16.5
v -16.5 0 15.5
v -16.5 1 15.5
v -15.5 0 15.5
v -15.5 1 15.5
v 15.5 0 15.5
v 15.5 1 15.5
v 16.5 0 15.5
v 16.5 1 15.5
v -17.5 0 13.5
v -17.5 1 13.5
v -16.5 0 13.5
v -16.5 1 13.5
v 16.5 0 13.5
v 16.5 1 13.5
v 17.5 0 13.5
v 17.5 1 13.5
v -17.5 0 -13.5
v -17.5 1 -13.5
v -16.5 0 -13.5
v -16.5 1 -13.5
v 16.5 0 -13.5
v 16.5 1 -13.5
v 17.5 0 -13.5
v 17.5 1 -13.5
v -16.5 0 -15.5
v -16.5 1 -15.5
v -15.5 0 -15.5
v -15.5 1 -15.5
v 15.5 0 -15.5
v 15.5 1 -15.5
v 16.5 0 -15.5
v 16.5 1 -15.5
v -15.5 0 -16.5
v -15.5 1 -16.5
v -13.5 0 -16.5
v -13.5 1 -16.5
v 13.5 0 -16.5
v 13.5 1 -16.5
v 15.5 0 -16.5
v 15.5 1 -16.5
v -13.5 0 -17.5
v -13.5 1 -17.5
v 13.5 0 -17.5
v 13.5 1 -17.5
v -13.5 0 17.5
v 13.5 0 17.5
v -15.5 0 16.5
v -13.5 0 16.5
v 13.5 0 16.5
v 15.5 0 16.5
v -16.5 0 15.5
v -15.5 0 15.5
v -13.5 0 15.5
v 13.5 0 15.5
v 15.5 0 15.5
v 16.5 0 15.5
v -17.5 0 13.5
v -16.5 0 13.5
v -15.5 0 13.5
v 15.5 0 13.5
v 16.5 0 13.5
v 17.5 0 13.5
v -3.5 0 12.5
v 3.5 0 12.5
v -8.5 0 -2.5
v -3.5 0 -2.5
v 3.5 0 -2.5
v 8.5 0 -2.5
v -8.5 0 -5.5
v -7.5 0 -5.5
v 7.5 0 -5.5
v 8.5 0 -5.5
v -7.5 0 -6.5
v -6.5 0 -6.5
v 6.5 0 -6.5
v 7.5 0 -6.5
v -6.5 0 -7.5
v -5.5 0 -7.5
v 5.5 0 -7.5
v 6.5 0 -7.5
v -5.5 0 -8.5
v -4.5 0 -8.5
v 4.5 0 -8.5
v 5.5 0 -8.5
v -4.5 0 -9.5
v -3.5 0 -9.5
v 3.5 0 -9.5
v 4.5 0 -9.5
v -3.5 0 -10.5
v -2.5 0 -10.5
v 2.5 0 -10.5
v 3.5 0 -10.5
v -2.5 0 -11.5
v -1.5 0 -11.5
v 1.5 0 -11.5
v 2.5 0 -11.5
v -1.5 0 -12.5
v -0.5 0 -12.5
v 0.5 0 -12.5
v 1.5 0 -12.5
v -17.5 0 -13.5
v -16.5 0 -13.5
v -15.5 0 -13.5
v -0.5 0 -13.5
v 0.5 0 -13.5
v 15.5 0 -13.5
v 16.5 0 -13.5
v 17.5 0 -13.5
v -16.5 0 -15.5
v -15.5 0 -15.5
v -13.5 0 -15.5
v 13.5 0 -15.5
v 15.5 0 -15.5
v 16.5 0 -15.5
v -15.5 0 -16.5
v -13.5 0 -16.5
v 13.5 0 -16.5
v 15.5 0 -16.5
v -13.5 0 -17.5
v 13.5 0 -17.5
v -13.5 1 17.5
v 13.5 1 17.5
v -15.5 1 16.5
v -13.5 1 16.5
v 13.5 1 16.5
v 15.5 1 16.5
v -16.5 1 15.5
v -15.5 1 15.5
v -13.5 1 15.5
v 13.5 1 15.5
v 15.5 1 15.5
v 16.5 1 15.5
v -17.5 1 13.5
v -16.5 1 13.5
v -15.5 1 13.5
v 15.5 1 13.5
v 16.5 1 13.5
v 17.5 1 13.5
v -3.5 1 12.5
v 3.5 1 12.5
v -8.5 1 -2.5
v -3.5 1 -2.5
v 3.5 1 -2.5
v 8.5 1 -2.5
v -8.5 1 -5.5
v -7.5 1 -5.5
v 7.5 1 -5.5
v 8.5 1 -5.5
v -7.5 1 -6.5
v -6.5 1 -6.5
v 6.5 1 -6.5
v 7.5 1 -6.5
v -6.5 1 -7.5
v -5.5 1 -7.5
v 5.5 1 -7.5
v 6.5 1 -7.5
v -5.5 1 -8.5
v -4.5 1 -8.5
v 4.5 1 -8.5
v 5.5 1 -8.5
v -4.5 1 -9.5
v -3.5 1 -9.5
v 3.5 1 -9.5
v 4.5 1 -9.5
v -3.5 1 -10.5
v -2.5 1 -10.5
v 2.5 1 -10.5
v 3.5 1 -10.5
v -2.5 1 -11.5
v -1.5 1 -11.5
v 1.5 1 -11.5
v 2.5 1 -11.5
v -1.5 1 -12.5
v -0.5 1 -12.5
v 0.5 1 -12.5
v 1.5 1 -12.5
v -17.5 1 -13.5
v -16.5 1 -13.5
v -15.5 1 -13.5
v -0.5 1 -13.5
v 0.5 1 -13.5
v 15.5 1 -13.5
v 16.5 1 -13.5
v 17.5 1 -13.5
v -16.5 1 -15.5
v -15.5 1 -15.5
v -13.5 1 -15.5
v 13.5 1 -15.5
v 15.5 1 -15.5
v 16.5 1 -15.5
v -15.5 1 -16.5
v -13.5 1 -16.5
v 13.5 1 -16.5
v 15.5 1 -16.5
v -13.5 1 -17.5
v 13.5 1 -17.5

# faces
f 3/3/1 2/3/1 1/3/1
f 4/3/1 2/3/1 3/3/1
f 9/3/1 6/3/1 5/3/1
f 10/3/1 6/3/1 9/3/1
f 11/3/1 8/3/1 7/3/1
f 12/3/1 8/3/1 11/3/1
f 17/3/1 14/3/1 13/3/1
f 18/3/1 14/3/1 17/3/1
f 19/3/1 16/3/1 15/3/1
f 20/3/1 16/3/1 19/3/1
f 25/3/1 22/3/1 21/3/1
f 26/3/1 22/3/1 25/3/1
f 27/3/1 24/3/1 23/3/1
f 28/3/1 24/3/1 27/3/1
f 29/3/2 30/3/2 33/3/2
f 33/3/2 30/3/2 34/3/2
f 31/3/2 32/3/2 35/3/2
f 35/3/2 32/3/2 36/3/2
f 37/3/2 38/3/2 41/3/2
f 41/3/2 38/3/2 42/3/2
f 39/3/2 40/3/2 43/3/2
f 43/3/2 40/3/2 44/3/2
f 45/3/2 46/3/2 49/3/2
f 49/3/2 46/3/2 50/3/2
f 47/3/2 48/3/2 51/3/2
f 51/3/2 48/3/2 52/3/2
f 53/3/2 54/3/2 55/3/2
f 55/3/2 54/3/2 56/3/2
f 59/3/3 58/3/3 57/3/3
f 60/3/3 58/3/3 59/3/3
f 63/3/3 62/3/3 61/3/3
f 64/3/3 62/3/3 63/3/3
f 67/3/3 66/3/3 65/3/3
f 68/3/3 66/3/3 67/3/3
f 71/3/3 70/3/3 69/3/3
f 72/3/3 70/3/3 71/3/3
f 75/3/3 74/3/3 73/3/3
f 76/3/3 74/3/3 75/3/3
f 79/3/3 78/3/3 77/3/3
f 80/3/3 78/3/3 79/3/3
f 83/3/3 82/3/3 81/3/3
f 84/3/3 82/3/3 83/3/3
f 85/3/4 86/3/4 87/3/4
f 87/3/4 86/3/4 88/3/4
f 89/3/4 90/3/4 91/3/4
f 91/3/4 90/3/4 92/3/4
f 93/3/4 94/3/4 95/3/4
f 95/3/4 94/3/4 96/3/4
f 97/3/4 98/3/4 99/3/4
f 99/3/4 98/3/4 100/3/4
f 101/3/4 102/3/4 103/3/4
f 103/3/4 102/3/4 104/3/4
f 105/3/4 106/3/4 107/3/4
f 107/3/4 106/3/4 108/3/4
f 109/3/4 110/3/4 111/3/4
f 111/3/4 110/3/4 112/3/4
f 116/3/5 114/3/5 113/3/5
f 117/3/5 114/3/5 116/3/5
f 120/3/5 116/3/5 115/3/5
f 121/1/5 117/1/5 116/1/5
f 121/3/5 116/3/5 120/3/5
f 122/3/5 118/3/5 117/3/5
f 122/1/5 117/1/5 121/1/5
f 123/3/5 118/3/5 122/3/5
f 126/3/5 120/3/5 119/3/5
f 127/1/5 121/1/5 120/1/5
f 127/1/5 122/1/5 121/1/5
f 127/3/5 120/3/5 126/3/5
f 127/1/5 123/1/5 122/1/5
f 128/3/5 124/3/5 123/3/5
f 128/1/5 123/1/5 127/1/5
f 129/3/5 124/3/5 128/3/5
f 131/1/5 127/1/5 126/1/5
f 131/1/5 128/1/5 127/1/5
f 131/1/5 129/1/5 128/1/5
f 132/1/5 129/1/5 131/1/5
f 133/1/5 131/1/5 126/1/5
f 134/2/5 132/2/5 131/2/5
f 134/1/5 131/1/5 133/1/5
f 135/1/5 129/1/5 132/1/5
f 135/2/5 132/2/5 134/2/5
f 136/1/5 129/1/5 135/1/5
f 137/2/5 134/2/5 133/2/5
f 137/1/5 133/1/5 126/1/5
f 137/2/5 136/2/5 135/2/5
f 137/2/5 135/2/5 134/2/5
f 138/2/5 136/2/5 137/2/5
f 139/2/5 136/2/5 138/2/5
f 140/1/5 129/1/5 136/1/5
f 140/2/5 136/2/5 139/2/5
f 141/2/5 139/2/5 138/2/5
f 141/1/5 138/1/5 137/1/5
f 142/2/5 139/2/5 141/2/5
f 143/2/5 139/2/5 142/2/5
f 144/1/5 140/1/5 139/1/5
f 144/2/5 139/2/5 143/2/5
f 145/2/5 143/2/5 142/2/5
f 145/1/5 142/1/5 141/1/5
f 146/2/5 143/2/5 145/2/5
f 147/2/5 143/2/5 146/2/5
f 148/1/5 144/1/5 143/1/5
f 148/2/5 143/2/5 147/2/5
f 149/2/5 147/2/5 146/2/5
f 149/1/5 146/1/5 145/1/5
f 150/2/5 147/2/5 149/2/5
f 151/2/5 147/2/5 150/2/5
f 152/1/5 148/1/5 147/1/5
f 152/2/5 147/2/5 151/2/5
f 153/2/5 151/2/5 150/2/5
f 153/1/5 150/1/5 149/1/5
f 154/2/5 151/2/5 153/2/5
f 155/2/5 151/2/5 154/2/5
f 156/1/5 152/1/5 151/1/5
f 156/2/5 151/2/5 155/2/5
f 157/2/5 155/2/5 154/2/5
f 157/1/5 154/1/5 153/1/5
f 158/2/5 155/2/5 157/2/5
f 159/2/5 155/2/5 158/2/5
f 160/1/5 156/1/5 155/1/5
f 160/2/5 155/2/5 159/2/5
f 161/2/5 159/2/5 158/2/5
f 161/1/5 158/1/5 157/1/5
f 162/2/5 159/2/5 161/2/5
f 163/2/5 159/2/5 162/2/5
f 164/1/5 160/1/5 159/1/5
f 164/2/5 159/2/5 163/2/5
f 165/2/5 163/2/5 162/2/5
f 165/1/5 162/1/5 161/1/5
f 166/2/5 163/2/5 165/2/5
f 167/2/5 163/2/5 166/2/5
f 168/1/5 164/1/5 163/1/5
f 168/2/5 163/2/5 167/2/5
f 169/3/5 126/3/5 125/3/5
f 170/1/5 137/1/5 126/1/5
f 170/3/5 126/3/5 169/3/5
f 170/1/5 141/1/5 137/1/5
f 170/1/5 145/1/5 141/1/5
f 170/1/5 166/1/5 165/1/5
f 170/1/5 165/1/5 161/1/5
f 170/1/5 149/1/5 145/1/5
f 170/1/5 161/1/5 157/1/5
f 170/1/5 153/1/5 149/1/5
f 170/1/5 157/1/5 153/1/5
f 171/1/5 166/1/5 170/1/5
f 172/2/5 167/2/5 166/2/5
f 172/1/5 166/1/5 171/1/5
f 173/1/5 168/1/5 167/1/5
f 173/2/5 167/2/5 172/2/5
f 174/1/5 164/1/5 168/1/5
f 174/1/5 168/1/5 173/1/5
f 174/1/5 129/1/5 140/1/5
f 174/1/5 140/1/5 144/1/5
f 174/1/5 156/1/5 160/1/5
f 174/1/5 152/1/5 156/1/5
f 174/1/5 160/1/5 164/1/5
f 174/1/5 148/1/5 152/1/5
f 174/1/5 144/1/5 148/1/5
f 175/3/5 130/3/5 129/3/5
f 175/1/5 129/1/5 174/1/5
f 176/3/5 130/3/5 175/3/5
f 177/3/5 171/3/5 170/3/5
f 178/1/5 173/1/5 172/1/5
f 178/3/5 171/3/5 177/3/5
f 178/1/5 174/1/5 173/1/5
f 178/1/5 172/1/5 171/1/5
f 179/1/5 174/1/5 178/1/5
f 180/1/5 174/1/5 179/1/5
f 181/3/5 175/3/5 174/3/5
f 181/1/5 174/1/5 180/1/5
f 182/3/5 175/3/5 181/3/5
f 183/3/5 179/3/5 178/3/5
f 184/1/5 180/1/5 179/1/5
f 184/3/5 179/3/5 183/3/5
f 185/3/5 181/3/5 180/3/5
f 185/1/5 180/1/5 184/1/5
f 186/3/5 181/3/5 185/3/5
f 187/3/5 185/3/5 184/3/5
f 188/3/5 185/3/5 187/3/5
f 189/3/6 190/3/6 192/3/6
f 192/3/6 190/3/6 193/3/6
f 191/3/6 192/3/6 196/3/6
f 192/1/6 193/1/6 197/1/6
f 196/3/6 192/3/6 197/3/6
f 193/3/6 194/3/6 198/3/6
f 197/1/6 193/1/6 198/1/6
f 198/3/6 194/3/6 199/3/6
f 195/3/6 196/3/6 202/3/6
f 196/1/6 197/1/6 203/1/6
f 197/1/6 198/1/6 203/1/6
f 202/3/6 196/3/6 203/3/6
f 198/1/6 199/1/6 203/1/6
f 199/3/6 200/3/6 204/3/6
f 203/1/6 199/1/6 204/1/6
f 204/3/6 200/3/6 205/3/6
f 202/1/6 203/1/6 207/1/6
f 203/1/6 204/1/6 207/1/6
f 204/1/6 205/1/6 207/1/6
f 207/1/6 205/1/6 208/1/6
f 202/1/6 207/1/6 209/1/6
f 207/2/6 208/2/6 210/2/6
f 209/1/6 207/1/6 210/1/6
f 208/1/6 205/1/6 211/1/6
f 210/2/6 208/2/6 211/2/6
f 211/1/6 205/1/6 212/1/6
f 209/2/6 210/2/6 213/2/6
f 202/1/6 209/1/6 213/1/6
f 211/2/6 212/2/6 213/2/6
f 210/2/6 211/2/6 213/2/6
f 213/2/6 212/2/6 214/2/6
f 214/2/6 212/2/6 215/2/6
f 212/1/6 205/1/6 216/1/6
f 215/2/6 212/2/6 216/2/6
f 214/2/6 215/2/6 217/2/6
f 213/1/6 214/1/6 217/1/6
f 217/2/6 215/2/6 218/2/6
f 218/2/6 215/2/6 219/2/6
f 215/1/6 216/1/6 220/1/6
f 219/2/6 215/2/6 220/2/6
f 218/2/6 219/2/6 221/2/6
f 217/1/6 218/1/6 221/1/6
f 221/2/6 219/2/6 222/2/6
f 222/2/6 219/2/6 223/2/6
f 219/1/6 220/1/6 224/1/6
f 223/2/6 219/2/6 224/2/6
f 222/2/6 223/2/6 225/2/6
f 221/1/6 222/1/6 225/1/6
f 225/2/6 223/2/6 226/2/6
f 226/2/6 223/2/6 227/2/6
f 223/1/6 224/1/6 228/1/6
f 227/2/6 223/2/6 228/2/6
f 226/2/6 227/2/6 229/2/6
f 225/1/6 226/1/6 229/1/6
f 229/2/6 227/2/6 230/2/6
f 230/2/6 227/2/6 231/2/6
f 227/1/6 228/1/6 232/1/6
f 231/2/6 227/2/6 232/2/6
f 230/2/6 231/2/6 233/2/6
f 229/1/6 230/1/6 233/1/6
f 233/2/6 231/2/6 234/2/6
f 234/2/6 231/2/6 235/2/6
f 231/1/6 232/1/6 236/1/6
f 235/2/6 231/2/6 236/2/6
f 234/2/6 235/2/6 237/2/6
f 233/1/6 234/1/6 237/1/6
f 237/2/6 235/2/6 238/2/6
f 238/2/6 235/2/6 239/2/6
f 235/1/6 236/1/6 240/1/6
f 239/2/6 235/2/6 240/2/6
f 238/2/6 239/2/6 241/2/6
f 237/1/6 238/1/6 241/1/6
f 241/2/6 239/2/6 242/2/6
f 242/2/6 239/2/6 243/2/6
f 239/1/6 240/1/6 244/1/6
f 243/2/6 239/2/6 244/2/6
f 201/3/6 202/3/6 245/3/6
f 202/1/6 213/1/6 246/1/6
f 245/3/6 202/3/6 246/3/6
f 213/1/6 217/1/6 246/1/6
f 217/1/6 221/1/6 246/1/6
f 241/1/6 242/1/6 246/1/6
f 237/1/6 241/1/6 246/1/6
f 221/1/6 225/1/6 246/1/6
f 233/1/6 237/1/6 246/1/6
f 225/1/6 229/1/6 246/1/6
f 229/1/6 233/1/6 246/1/6
f 246/1/6 242/1/6 247/1/6
f 242/2/6 243/2/6 248/2/6
f 247/1/6 242/1/6 248/1/6
f 243/1/6 244/1/6 249/1/6
f 248/2/6 243/2/6 249/2/6
f 244/1/6 240/1/6 250/1/6
f 249/1/6 244/1/6 250/1/6
f 216/1/6 205/1/6 250/1/6
f 220/1/6 216/1/6 250/1/6
f 236/1/6 232/1/6 250/1/6
f 232/1/6 228/1/6 250/1/6
f 240/1/6 236/1/6 250/1/6
f 228/1/6 224/1/6 250/1/6
f 224/1/6 220/1/6 250/1/6
f 205/3/6 206/3/6 251/3/6
f 250/1/6 205/1/6 251/1/6
f 251/3/6 206/3/6 252/3/6
f 246/3/6 247/3/6 253/3/6
f 248/1/6 249/1/6 254/1/6
f 253/3/6 247/3/6 254/3/6
f 249/1/6 250/1/6 254/1/6
f 247/1/6 248/1/6 254/1/6
f 254/1/6 250/1/6 255/1/6
f 255/1/6 250/1/6 256/1/6
f 250/3/6 251/3/6 257/3/6
f 256/1/6 250/1/6 257/1/6
f 257/3/6 251/3/6 258/3/6
f 254/3/6 255/3/6 259/3/6
f 255/1/6 256/1/6 260/1/6
f 259/3/6 255/3/6 260/3/6
f 256/3/6 257/3/6 261/3/6
f 260/1/6 256/1/6 261/1/6
f 261/3/6 257/3/6 262/3/6
f 260/3/6 261/3/6 263/3/6
f 263/3/6 261/3/6 264/3/6
