# MagicaVoxel @ Ephtracy

# group
g house-1

# material
mtllib house-1.mtl
usemtl palette

# normals
vn -1 0 0
vn 1 0 0
vn 0 0 1
vn 0 0 -1
vn 0 -1 0
vn 0 1 0

# texcoords
vt 0.0566406 0.5
vt 0.0761719 0.5

# verts
v -4 15 20
v -4 15 19
v -4 17 20
v -4 17 19
v -4 19 20
v -4 19 19
v -4 21 20
v -4 21 19
v 2 15 20
v 2 15 19
v 2 17 20
v 2 17 19
v 2 19 20
v 2 19 19
v 2 21 20
v 2 21 19
v 19 15 14
v 19 15 12
v 19 15 11
v 19 15 9
v 19 15 -9
v 19 15 -11
v 19 15 -12
v 19 15 -14
v 19 17 14
v 19 17 12
v 19 17 11
v 19 17 9
v 19 17 -9
v 19 17 -11
v 19 17 -12
v 19 17 -14
v 19 18 14
v 19 18 12
v 19 18 11
v 19 18 9
v 19 18 -9
v 19 18 -11
v 19 18 -12
v 19 18 -14
v 19 20 14
v 19 20 12
v 19 20 11
v 19 20 9
v 19 20 -9
v 19 20 -11
v 19 20 -12
v 19 20 -14
v -1 15 20
v -1 15 19
v -1 17 20
v -1 17 19
v -1 19 20
v -1 19 19
v -1 21 20
v -1 21 19
v 5 15 20
v 5 15 19
v 5 17 20
v 5 17 19
v 5 19 20
v 5 19 19
v 5 21 20
v 5 21 19
v 20 15 14
v 20 15 12
v 20 15 11
v 20 15 9
v 20 15 -9
v 20 15 -11
v 20 15 -12
v 20 15 -14
v 20 17 14
v 20 17 12
v 20 17 11
v 20 17 9
v 20 17 -9
v 20 17 -11
v 20 17 -12
v 20 17 -14
v 20 18 14
v 20 18 12
v 20 18 11
v 20 18 9
v 20 18 -9
v 20 18 -11
v 20 18 -12
v 20 18 -14
v 20 20 14
v 20 20 12
v 20 20 11
v 20 20 9
v 20 20 -9
v 20 20 -11
v 20 20 -12
v 20 20 -14
v -4 15 20
v -4 17 20
v -4 19 20
v -4 21 20
v -1 15 20
v -1 17 20
v -1 19 20
v -1 21 20
v 2 15 20
v 2 17 20
v 2 19 20
v 2 21 20
v 5 15 20
v 5 17 20
v 5 19 20
v 5 21 20
v 19 15 14
v 19 17 14
v 19 18 14
v 19 20 14
v 20 15 14
v 20 17 14
v 20 18 14
v 20 20 14
v 19 15 11
v 19 17 11
v 19 18 11
v 19 20 11
v 20 15 11
v 20 17 11
v 20 18 11
v 20 20 11
v 19 15 -9
v 19 17 -9
v 19 18 -9
v 19 20 -9
v 20 15 -9
v 20 17 -9
v 20 18 -9
v 20 20 -9
v 19 15 -12
v 19 17 -12
v 19 18 -12
v 19 20 -12
v 20 15 -12
v 20 17 -12
v 20 18 -12
v 20 20 -12
v -4 15 19
v -4 17 19
v -4 19 19
v -4 21 19
v -1 15 19
v -1 17 19
v -1 19 19
v -1 21 19
v 2 15 19
v 2 17 19
v 2 19 19
v 2 21 19
v 5 15 19
v 5 17 19
v 5 19 19
v 5 21 19
v 19 15 12
v 19 17 12
v 19 18 12
v 19 20 12
v 20 15 12
v 20 17 12
v 20 18 12
v 20 20 12
v 19 15 9
v 19 17 9
v 19 18 9
v 19 20 9
v 20 15 9
v 20 17 9
v 20 18 9
v 20 20 9
v 19 15 -11
v 19 17 -11
v 19 18 -11
v 19 20 -11
v 20 15 -11
v 20 17 -11
v 20 18 -11
v 20 20 -11
v 19 15 -14
v 19 17 -14
v 19 18 -14
v 19 20 -14
v 20 15 -14
v 20 17 -14
v 20 18 -14
v 20 20 -14
v -4 15 20
v -1 15 20
v 2 15 20
v 5 15 20
v -4 15 19
v -1 15 19
v 2 15 19
v 5 15 19
v 19 15 14
v 20 15 14
v 19 15 12
v 20 15 12
v 19 15 11
v 20 15 11
v 19 15 9
v 20 15 9
v 19 15 -9
v 20 15 -9
v 19 15 -11
v 20 15 -11
v 19 15 -12
v 20 15 -12
v 19 15 -14
v 20 15 -14
v 19 18 14
v 20 18 14
v 19 18 12
v 20 18 12
v 19 18 11
v 20 18 11
v 19 18 9
v 20 18 9
v 19 18 -9
v 20 18 -9
v 19 18 -11
v 20 18 -11
v 19 18 -12
v 20 18 -12
v 19 18 -14
v 20 18 -14
v -4 19 20
v -1 19 20
v 2 19 20
v 5 19 20
v -4 19 19
v -1 19 19
v 2 19 19
v 5 19 19
v -4 17 20
v -1 17 20
v 2 17 20
v 5 17 20
v -4 17 19
v -1 17 19
v 2 17 19
v 5 17 19
v 19 17 14
v 20 17 14
v 19 17 12
v 20 17 12
v 19 17 11
v 20 17 11
v 19 17 9
v 20 17 9
v 19 17 -9
v 20 17 -9
v 19 17 -11
v 20 17 -11
v 19 17 -12
v 20 17 -12
v 19 17 -14
v 20 17 -14
v 19 20 14
v 20 20 14
v 19 20 12
v 20 20 12
v 19 20 11
v 20 20 11
v 19 20 9
v 20 20 9
v 19 20 -9
v 20 20 -9
v 19 20 -11
v 20 20 -11
v 19 20 -12
v 20 20 -12
v 19 20 -14
v 20 20 -14
v -4 21 20
v -1 21 20
v 2 21 20
v 5 21 20
v -4 21 19
v -1 21 19
v 2 21 19
v 5 21 19

# faces
f 3/1/1 2/1/1 1/1/1
f 4/1/1 2/1/1 3/1/1
f 7/1/1 6/1/1 5/1/1
f 8/1/1 6/1/1 7/1/1
f 11/1/1 10/1/1 9/1/1
f 12/1/1 10/1/1 11/1/1
f 15/1/1 14/1/1 13/1/1
f 16/1/1 14/1/1 15/1/1
f 25/2/1 18/2/1 17/2/1
f 26/2/1 18/2/1 25/2/1
f 27/2/1 20/2/1 19/2/1
f 28/2/1 20/2/1 27/2/1
f 29/2/1 22/2/1 21/2/1
f 30/2/1 22/2/1 29/2/1
f 31/2/1 24/2/1 23/2/1
f 32/2/1 24/2/1 31/2/1
f 41/2/1 34/2/1 33/2/1
f 42/2/1 34/2/1 41/2/1
f 43/2/1 36/2/1 35/2/1
f 44/2/1 36/2/1 43/2/1
f 45/2/1 38/2/1 37/2/1
f 46/2/1 38/2/1 45/2/1
f 47/2/1 40/2/1 39/2/1
f 48/2/1 40/2/1 47/2/1
f 49/1/2 50/1/2 51/1/2
f 51/1/2 50/1/2 52/1/2
f 53/1/2 54/1/2 55/1/2
f 55/1/2 54/1/2 56/1/2
f 57/1/2 58/1/2 59/1/2
f 59/1/2 58/1/2 60/1/2
f 61/1/2 62/1/2 63/1/2
f 63/1/2 62/1/2 64/1/2
f 65/2/2 66/2/2 73/2/2
f 73/2/2 66/2/2 74/2/2
f 67/2/2 68/2/2 75/2/2
f 75/2/2 68/2/2 76/2/2
f 69/2/2 70/2/2 77/2/2
f 77/2/2 70/2/2 78/2/2
f 71/2/2 72/2/2 79/2/2
f 79/2/2 72/2/2 80/2/2
f 81/2/2 82/2/2 89/2/2
f 89/2/2 82/2/2 90/2/2
f 83/2/2 84/2/2 91/2/2
f 91/2/2 84/2/2 92/2/2
f 85/2/2 86/2/2 93/2/2
f 93/2/2 86/2/2 94/2/2
f 87/2/2 88/2/2 95/2/2
f 95/2/2 88/2/2 96/2/2
f 101/1/3 98/1/3 97/1/3
f 102/1/3 98/1/3 101/1/3
f 103/1/3 100/1/3 99/1/3
f 104/1/3 100/1/3 103/1/3
f 109/1/3 106/1/3 105/1/3
f 110/1/3 106/1/3 109/1/3
f 111/1/3 108/1/3 107/1/3
f 112/1/3 108/1/3 111/1/3
f 117/2/3 114/2/3 113/2/3
f 118/2/3 114/2/3 117/2/3
f 119/2/3 116/2/3 115/2/3
f 120/2/3 116/2/3 119/2/3
f 125/2/3 122/2/3 121/2/3
f 126/2/3 122/2/3 125/2/3
f 127/2/3 124/2/3 123/2/3
f 128/2/3 124/2/3 127/2/3
f 133/2/3 130/2/3 129/2/3
f 134/2/3 130/2/3 133/2/3
f 135/2/3 132/2/3 131/2/3
f 136/2/3 132/2/3 135/2/3
f 141/2/3 138/2/3 137/2/3
f 142/2/3 138/2/3 141/2/3
f 143/2/3 140/2/3 139/2/3
f 144/2/3 140/2/3 143/2/3
f 145/1/4 146/1/4 149/1/4
f 149/1/4 146/1/4 150/1/4
f 147/1/4 148/1/4 151/1/4
f 151/1/4 148/1/4 152/1/4
f 153/1/4 154/1/4 157/1/4
f 157/1/4 154/1/4 158/1/4
f 155/1/4 156/1/4 159/1/4
f 159/1/4 156/1/4 160/1/4
f 161/2/4 162/2/4 165/2/4
f 165/2/4 162/2/4 166/2/4
f 163/2/4 164/2/4 167/2/4
f 167/2/4 164/2/4 168/2/4
f 169/2/4 170/2/4 173/2/4
f 173/2/4 170/2/4 174/2/4
f 171/2/4 172/2/4 175/2/4
f 175/2/4 172/2/4 176/2/4
f 177/2/4 178/2/4 181/2/4
f 181/2/4 178/2/4 182/2/4
f 179/2/4 180/2/4 183/2/4
f 183/2/4 180/2/4 184/2/4
f 185/2/4 186/2/4 189/2/4
f 189/2/4 186/2/4 190/2/4
f 187/2/4 188/2/4 191/2/4
f 191/2/4 188/2/4 192/2/4
f 197/1/5 194/1/5 193/1/5
f 198/1/5 194/1/5 197/1/5
f 199/1/5 196/1/5 195/1/5
f 200/1/5 196/1/5 199/1/5
f 203/2/5 202/2/5 201/2/5
f 204/2/5 202/2/5 203/2/5
f 207/2/5 206/2/5 205/2/5
f 208/2/5 206/2/5 207/2/5
f 211/2/5 210/2/5 209/2/5
f 212/2/5 210/2/5 211/2/5
f 215/2/5 214/2/5 213/2/5
f 216/2/5 214/2/5 215/2/5
f 219/2/5 218/2/5 217/2/5
f 220/2/5 218/2/5 219/2/5
f 223/2/5 222/2/5 221/2/5
f 224/2/5 222/2/5 223/2/5
f 227/2/5 226/2/5 225/2/5
f 228/2/5 226/2/5 227/2/5
f 231/2/5 230/2/5 229/2/5
f 232/2/5 230/2/5 231/2/5
f 237/1/5 234/1/5 233/1/5
f 238/1/5 234/1/5 237/1/5
f 239/1/5 236/1/5 235/1/5
f 240/1/5 236/1/5 239/1/5
f 241/1/6 242/1/6 245/1/6
f 245/1/6 242/1/6 246/1/6
f 243/1/6 244/1/6 247/1/6
f 247/1/6 244/1/6 248/1/6
f 249/2/6 250/2/6 251/2/6
f 251/2/6 250/2/6 252/2/6
f 253/2/6 254/2/6 255/2/6
f 255/2/6 254/2/6 256/2/6
f 257/2/6 258/2/6 259/2/6
f 259/2/6 258/2/6 260/2/6
f 261/2/6 262/2/6 263/2/6
f 263/2/6 262/2/6 264/2/6
f 265/2/6 266/2/6 267/2/6
f 267/2/6 266/2/6 268/2/6
f 269/2/6 270/2/6 271/2/6
f 271/2/6 270/2/6 272/2/6
f 273/2/6 274/2/6 275/2/6
f 275/2/6 274/2/6 276/2/6
f 277/2/6 278/2/6 279/2/6
f 279/2/6 278/2/6 280/2/6
f 281/1/6 282/1/6 285/1/6
f 285/1/6 282/1/6 286/1/6
f 283/1/6 284/1/6 287/1/6
f 287/1/6 284/1/6 288/1/6
