# Exported from ProBuilder
# http://www.procore3d.com/probuilder
# 2/5/2019 4:14:18 PM

mtllib ./45_Turn.mtl
o 45 Turn

g Pipe
v 114.2763 -6.5 105.0708
v 108.4236 -6.5 105.6473
v 112.3254 -6.5 95.26299
v 108.4236 -6.5 95.64729
v 119.9041 -6.5 103.3637
v 114.2763 -6.5 105.0708
v 116.0772 -6.5 94.12488
v 112.3254 -6.5 95.26299
v 125.0907 -6.5 100.5914
v 119.9041 -6.5 103.3637
v 119.535 -6.5 92.27668
v 116.0772 -6.5 94.12488
v 129.6368 -6.5 96.8605
v 125.0907 -6.5 100.5914
v 122.5657 -6.5 89.78943
v 119.535 -6.5 92.27668
v 133.3676 -6.5 92.31439
v 129.6368 -6.5 96.8605
v 125.0529 -6.5 86.7587
v 122.5657 -6.5 89.78943
v 136.1399 -6.5 87.12779
v 133.3676 -6.5 92.31439
v 126.9011 -6.5 83.30096
v 125.0529 -6.5 86.7587
v 137.8471 -6.5 81.5
v 136.1399 -6.5 87.12779
v 128.0393 -6.5 79.5491
v 126.9011 -6.5 83.30096
v 138.4236 -6.5 75.64729
v 137.8471 -6.5 81.5
v 128.4236 -6.5 75.64729
v 128.0393 -6.5 79.5491

vn 0 1 0
vn 0 1 0
vn 0 1 0
vn 0 1 0
vn 0 1 0
vn 0 0.9999999 0
vn 0 1 0
vn 0 1 0
vn 0 1 0
vn 0 1 0
vn 0 1 0
vn 0 1 0
vn 0 1 0
vn 0 1 0
vn 0 1 0
vn 0 1 0
vn 0 1 0
vn 0 0.9999999 0
vn 0 1 0
vn 0 1 0
vn 0 0.9999999 0
vn 0 1 0
vn 0 1 0
vn 0 0.9999999 0
vn 0 1 0
vn 0 1 0
vn 0 0.9999999 0
vn 0 1 0
vn 0 1 0
vn 0 0.9999999 0
vn 0 1 0
vn 0 1 0

vt -35.27627 23.57085
vt -29.42356 24.14729
vt -33.32536 13.763
vt -29.42356 14.14729
vt -40.90406 21.86368
vt -35.27627 23.57085
vt -37.07722 12.62488
vt -33.32536 13.763
vt -46.09066 19.09138
vt -40.90406 21.86368
vt -40.53496 10.77668
vt -37.07722 12.62488
vt -50.63676 15.36049
vt -46.09066 19.09138
vt -43.56569 8.289426
vt -40.53496 10.77668
vt -54.36765 10.81439
vt -50.63676 15.36049
vt -46.05295 5.258694
vt -43.56569 8.289426
vt -57.13994 5.627795
vt -54.36765 10.81439
vt -47.90115 1.80096
vt -46.05295 5.258694
vt -58.84711 -4.768372E-07
vt -57.13994 5.627795
vt -49.03926 -1.950904
vt -47.90115 1.80096
vt -59.42356 -5.852713
vt -58.84711 -4.768372E-07
vt -49.42356 -5.852712
vt -49.03926 -1.950904

g Pipe
usemtl Default_Prototype
f 3/3/3 4/4/4 2/2/2 1/1/1
f 7/7/7 8/8/8 6/6/6 5/5/5
f 11/11/11 12/12/12 10/10/10 9/9/9
f 15/15/15 16/16/16 14/14/14 13/13/13
f 19/19/19 20/20/20 18/18/18 17/17/17
f 23/23/23 24/24/24 22/22/22 21/21/21
f 27/27/27 28/28/28 26/26/26 25/25/25
f 31/31/31 32/32/32 30/30/30 29/29/29

