# Exported from ProBuilder
# http://www.procore3d.com/probuilder
# 2/5/2019 4:05:47 PM

mtllib ./90_Turn.mtl
o 90 Turn

g Pipe
v 51.5 -6.5 53.5
v 51.21178 -6.5 50.57365
v 61.30785 -6.5 51.5491
v 61.21178 -6.5 50.57365
v 52.35358 -6.5 56.3139
v 51.5 -6.5 53.5
v 61.59238 -6.5 52.48706
v 61.30785 -6.5 51.5491
v 53.73973 -6.5 58.9072
v 52.35358 -6.5 56.3139
v 62.05443 -6.5 53.3515
v 61.59238 -6.5 52.48706
v 55.60518 -6.5 61.18025
v 53.73973 -6.5 58.9072
v 62.67625 -6.5 54.10918
v 62.05443 -6.5 53.3515
v 57.87823 -6.5 63.04569
v 55.60518 -6.5 61.18025
v 63.43393 -6.5 54.731
v 62.67625 -6.5 54.10918
v 60.47153 -6.5 64.43184
v 57.87823 -6.5 63.04569
v 64.29836 -6.5 55.19304
v 63.43393 -6.5 54.731
v 63.28542 -6.5 65.28542
v 60.47153 -6.5 64.43184
v 65.23633 -6.5 55.47757
v 64.29836 -6.5 55.19304
v 66.21178 -6.5 65.57365
v 63.28542 -6.5 65.28542
v 66.21178 -6.5 55.57365
v 65.23633 -6.5 55.47757

vn 0 1 0
vn 0 1 0
vn 0 1 0
vn 0 1 0
vn 0 1 0
vn 0 1 0
vn 0 1 0
vn 0 1 0
vn 0 1 0
vn 0 1 0
vn 0 1 0
vn 0 1 0
vn 0 1 0
vn 0 0.9999999 0
vn 0 0.9999999 0
vn 0 1 0
vn 0 1 0
vn 0 0.9999999 0
vn 0 0.9999999 0
vn 0 1 0
vn 0 1 0
vn 0 1 0
vn 0 1 0
vn 0 1 0
vn 0 1 0
vn 0 1 0
vn 0 1 0
vn 0 1 0
vn 0 1 0
vn 0 1 0
vn 0 1 0
vn 0 1 0

vt 0 0
vt 0.2882214 -2.926355
vt -9.807852 -1.950903
vt -9.711779 -2.926355
vt -0.8535862 2.813897
vt 0 0
vt -10.09238 -1.012938
vt -9.807852 -1.950903
vt -2.239735 5.407198
vt -0.8535862 2.813897
vt -10.55443 -0.1485038
vt -10.09238 -1.012938
vt -4.105177 7.680247
vt -2.239735 5.407198
vt -11.17624 0.609179
vt -10.55443 -0.1485038
vt -6.378225 9.545689
vt -4.105177 7.680247
vt -11.93393 1.230993
vt -11.17624 0.609179
vt -8.971527 10.93184
vt -6.378225 9.545689
vt -12.79836 1.693043
vt -11.93393 1.230993
vt -11.78542 11.78542
vt -8.971527 10.93184
vt -13.73633 1.977571
vt -12.79836 1.693043
vt -14.71178 12.07364
vt -11.78542 11.78542
vt -14.71178 2.073645
vt -13.73633 1.977571

g Pipe
usemtl Default_Prototype
f 3/3/3 4/4/4 2/2/2 1/1/1
f 7/7/7 8/8/8 6/6/6 5/5/5
f 11/11/11 12/12/12 10/10/10 9/9/9
f 15/15/15 16/16/16 14/14/14 13/13/13
f 19/19/19 20/20/20 18/18/18 17/17/17
f 23/23/23 24/24/24 22/22/22 21/21/21
f 27/27/27 28/28/28 26/26/26 25/25/25
f 31/31/31 32/32/32 30/30/30 29/29/29

