# Exported from ProBuilder
# http://www.procore3d.com/probuilder
# 2/5/2019 4:30:53 PM

mtllib ./Half_Ramp.mtl
o Half Ramp

g Plane(Clone)
v 108.5 -6.5 100.0455
v 108.5 -6.5 99.13636
v 107.5909 -6.5 100.0455
v 107.5909 -6.5 99.13636
v 108.5 -6.5 99.13636
v 108.5 -6.5 98.22727
v 107.5909 -6.5 99.13636
v 107.5909 -6.5 98.22727
v 108.5 -6.5 98.22727
v 108.5 -6.5 97.31818
v 107.5909 -6.5 98.22727
v 107.5909 -6.5 97.31818
v 108.5 -6.5 97.31818
v 108.5 -6.5 96.40909
v 107.5909 -6.5 97.31818
v 107.5909 -6.5 96.40909
v 108.5 -6.5 96.40909
v 108.5 -6.5 95.5
v 107.5909 -6.5 96.40909
v 107.5909 -6.5 95.5
v 107.5909 -6.5 100.0455
v 107.5909 -6.5 99.13636
v 106.6818 -6.5 100.0455
v 106.6818 -6.5 99.13636
v 107.5909 -6.5 99.13636
v 107.5909 -6.5 98.22727
v 106.6818 -6.5 99.13636
v 106.6818 -6.5 98.22727
v 107.5909 -6.5 98.22727
v 107.5909 -6.5 97.31818
v 106.6818 -6.5 98.22727
v 106.6818 -6.5 97.31818
v 107.5909 -6.5 97.31818
v 107.5909 -6.5 96.40909
v 106.6818 -6.5 97.31818
v 106.6818 -6.5 96.40909
v 107.5909 -6.5 96.40909
v 107.5909 -6.5 95.5
v 106.6818 -6.5 96.40909
v 106.6818 -6.5 95.5
v 106.6818 -6.5 100.0455
v 106.6818 -6.5 99.13636
v 105.7727 -6.5 100.0455
v 105.7727 -6.5 99.13636
v 106.6818 -6.5 99.13636
v 106.6818 -6.5 98.22727
v 105.7727 -6.5 99.13636
v 105.7727 -6.5 98.22727
v 106.6818 -6.5 98.22727
v 106.6818 -6.5 97.31818
v 105.7727 -6.5 98.22727
v 105.7727 -6.5 97.31818
v 106.6818 -6.5 97.31818
v 106.6818 -6.5 96.40909
v 105.7727 -6.5 97.31818
v 105.7727 -6.5 96.40909
v 106.6818 -6.5 96.40909
v 106.6818 -6.5 95.5
v 105.7727 -6.5 96.40909
v 105.7727 -6.5 95.5
v 105.7727 -6.5 100.0455
v 105.7727 -6.5 99.13636
v 104.8636 -6.5 100.0455
v 104.8636 -6.5 98
v 105.7727 -6.5 99.13636
v 105.7727 -6.5 98.22727
v 104.8636 -6.5 98
v 104.8636 -6.5 98
v 105.7727 -6.5 98.22727
v 105.7727 -6.5 97.31818
v 104.8636 -6.5 98
v 104.8636 -6.5 97.31818
v 105.7727 -6.5 97.31818
v 105.7727 -6.5 96.40909
v 104.8636 -6.5 97.31818
v 104.8636 -6.5 96.40909
v 105.7727 -6.5 96.40909
v 105.7727 -6.5 95.5
v 104.8636 -6.5 96.40909
v 104.8636 -6.5 95.5
v 104.8636 -6.5 100.0455
v 104.8636 -6.5 98
v 103.9545 -6.5 100.0455
v 103.9545 -6.5 98
v 104.8636 -6.5 98
v 104.8636 -6.5 98
v 103.9545 -6.5 98
v 103.9545 -6 98
v 104.8636 -6.5 98
v 104.8636 -6.5 97.31818
v 103.9545 -6 98
v 103.9545 -6 97.31818
v 104.8636 -6.5 97.31818
v 104.8636 -6.5 96.40909
v 103.9545 -6 97.31818
v 103.9545 -6 96.5
v 104.8636 -6.5 96.40909
v 104.8636 -6.5 95.5
v 103.9545 -6 96.5
v 104 -6 95.5
v 103.9545 -6.5 100.0455
v 103.9545 -6.5 98
v 103.0455 -6.5 100.0455
v 103.0455 -6.5 98
v 103.0455 -6.5 100.0455
v 103.0455 -6.5 98
v 102.1364 -6.5 100.0455
v 102.1364 -6.5 99.13636
v 103.0455 -6.5 98
v 103.0455 -6.5 98
v 102.1364 -6.5 99.13636
v 102.1364 -6.5 98
v 102.1364 -6.5 100.0455
v 102.1364 -6.5 99.13636
v 101.2273 -6.5 100.0455
v 101.2273 -6.5 99.13636
v 102.1364 -6.5 99.13636
v 102.1364 -6.5 98
v 101.2273 -6.5 99.13636
v 101.2273 -6.5 98.22727
v 102.1364 -6.5 98
v 102.1364 -6.5 97.31818
v 101.2273 -6.5 98.22727
v 101.2273 -6.5 97.31818
v 102.1364 -6.5 97.31818
v 102.1364 -6.5 96
v 101.2273 -6.5 97.31818
v 101.2273 -6.5 96.40909
v 102.1364 -6.5 96
v 102.1364 -6.5 95.5
v 101.2273 -6.5 96.40909
v 101.2273 -6.5 95.5
v 101.2273 -6.5 100.0455
v 101.2273 -6.5 99.13636
v 100.3182 -6.5 100.0455
v 100.3182 -6.5 99.13636
v 101.2273 -6.5 99.13636
v 101.2273 -6.5 98.22727
v 100.3182 -6.5 99.13636
v 100.3182 -6.5 98.22727
v 101.2273 -6.5 98.22727
v 101.2273 -6.5 97.31818
v 100.3182 -6.5 98.22727
v 100.3182 -6.5 97.31818
v 101.2273 -6.5 97.31818
v 101.2273 -6.5 96.40909
v 100.3182 -6.5 97.31818
v 100.3182 -6.5 96.40909
v 101.2273 -6.5 96.40909
v 101.2273 -6.5 95.5
v 100.3182 -6.5 96.40909
v 100.3182 -6.5 95.5
v 100.3182 -6.5 100.0455
v 100.3182 -6.5 99.13636
v 99.40909 -6.5 100.0455
v 99.40909 -6.5 99.13636
v 100.3182 -6.5 99.13636
v 100.3182 -6.5 98.22727
v 99.40909 -6.5 99.13636
v 99.40909 -6.5 98.22727
v 100.3182 -6.5 98.22727
v 100.3182 -6.5 97.31818
v 99.40909 -6.5 98.22727
v 99.40909 -6.5 97.31818
v 100.3182 -6.5 97.31818
v 100.3182 -6.5 96.40909
v 99.40909 -6.5 97.31818
v 99.40909 -6.5 96.40909
v 100.3182 -6.5 96.40909
v 100.3182 -6.5 95.5
v 99.40909 -6.5 96.40909
v 99.40909 -6.5 95.5
v 99.40909 -6.5 100.0455
v 99.40909 -6.5 99.13636
v 98.5 -6.5 100.0455
v 98.5 -6.5 99.13636
v 99.40909 -6.5 99.13636
v 99.40909 -6.5 98.22727
v 98.5 -6.5 99.13636
v 98.5 -6.5 98.22727
v 99.40909 -6.5 98.22727
v 99.40909 -6.5 97.31818
v 98.5 -6.5 98.22727
v 98.5 -6.5 97.31818
v 99.40909 -6.5 97.31818
v 99.40909 -6.5 96.40909
v 98.5 -6.5 97.31818
v 98.5 -6.5 96.40909
v 99.40909 -6.5 96.40909
v 99.40909 -6.5 95.5
v 98.5 -6.5 96.40909
v 98.5 -6.5 95.5

vn 0 1 0
vn 0 1 0
vn 0 1 0
vn 0 1 0
vn 0 1 0
vn 0 1 0
vn 0 1 0
vn 0 1 0
vn 0 1 0
vn 0 1 0
vn 0 1 0
vn 0 1 0
vn 0 1 0
vn 0 1 0
vn 0 1 0
vn 0 1 0
vn 0 1 0
vn 0 1 0
vn 0 1 0
vn 0 1 0
vn 0 1 0
vn 0 1 0
vn 0 1 0
vn 0 1 0
vn 0 0.9999999 0
vn 0 0.9999999 0
vn 0 0.9999999 0
vn 0 0.9999999 0
vn 0 1 0
vn 0 1 0
vn 0 1 0
vn 0 1 0
vn 0 1 0
vn 0 1 0
vn 0 1 0
vn 0 1 0
vn 0 1 0
vn 0 1 0
vn 0 1 0
vn 0 1 0
vn 0 1 0
vn 0 1 0
vn 0 1 0
vn 0 1 0
vn 0 1 0
vn 0 1 0
vn 0 1 0
vn 0 1 0
vn 0 1 0
vn 0 1 0
vn 0 1 0
vn 0 1 0
vn 0 1 0
vn 0 1 0
vn 0 1 0
vn 0 1 0
vn 0 1 0
vn 0 1 0
vn 0 1 0
vn 0 1 0
vn 0 1 0
vn 0 1 0
vn 0 1 0
vn 0 0.9999999 0
vn 0 0.9999999 0
vn 0 0.9999999 0
vn 0 0.9999999 0
vn 0 0 0
vn 0 1 0
vn 0 1 0
vn 0 1 0
vn 0 1 0
vn 0 1 0
vn 0 1 0
vn 0 1 0
vn 0 1 0
vn 0 1 0
vn 0 1 0
vn 0 1 0
vn 0 1 0
vn 0 0.9999999 0
vn 0 1 0
vn 0 1 0
vn 0 0.9999999 0
vn 0 0 0
vn 0 0 1
vn 0 0 1
vn 0 0 1
vn 0.4819168 0.876217 -2.359238E-06
vn 0.4819175 0.8762167 -1.179622E-06
vn 0.4819175 0.8762167 -1.179622E-06
vn 0.4819181 0.8762162 0
vn 0.4819181 0.8762162 0
vn 0.4819182 0.8762163 0
vn 0.4819182 0.8762163 0
vn 0.4819181 0.8762162 0
vn 0.4819181 0.8762162 0
vn 0.4917426 0.8706619 0.01170851
vn 0.4917426 0.8706619 0.01170851
vn 0.5009063 0.865202 0.02276916
vn 0 0.9999999 0
vn 0 0.9999999 0
vn 0 0.9999999 0
vn 0 1 0
vn 0 0.9999999 0
vn 0 1 0
vn 0 1 0
vn 0 1 0
vn 0 0 0
vn 0 1 0
vn 0 1 0
vn 0 1 0
vn 0 1 0
vn 0 1 0
vn 0 1 0
vn 0 1 0
vn 0 1 0
vn 0 0.9999999 0
vn 0 0.9999999 0
vn 0 1 0
vn 0 0.9999999 0
vn 0 0.9999999 0
vn 0 0.9999999 0
vn 0 1 0
vn 0 1 0
vn 0 1 0
vn 0 1 0
vn 0 1 0
vn 0 0.9999999 0
vn 0 0.9999999 0
vn 0 0.9999999 0
vn 0 1 0
vn 0 1 0
vn 0 1 0
vn 0 1 0
vn 0 1 0
vn 0 1 0
vn 0 1 0
vn 0 1 0
vn 0 1 0
vn 0 1 0
vn 0 1 0
vn 0 1 0
vn 0 1 0
vn 0 1 0
vn 0 1 0
vn 0 1 0
vn 0 1 0
vn 0 1 0
vn 0 1 0
vn 0 1 0
vn 0 1 0
vn 0 1 0
vn 0 1 0
vn 0 1 0
vn 0 1 0
vn 0 1 0
vn 0 1 0
vn 0 1 0
vn 0 1 0
vn 0 1 0
vn 0 1 0
vn 0 1 0
vn 0 1 0
vn 0 1 0
vn 0 1 0
vn 0 1 0
vn 0 1 0
vn 0 1 0
vn 0 1 0
vn 0 1 0
vn 0 1 0
vn 0 1 0
vn 0 1 0
vn 0 1 0
vn 0 1 0
vn 0 1 0
vn 0 1 0
vn 0 1 0
vn 0 1 0
vn 0 1 0
vn 0 1 0
vn 0 1 0
vn 0 1 0
vn 0 1 0
vn 0 1 0
vn 0 1 0
vn 0 1 0
vn 0 1 0
vn 0 1 0
vn 0 1 0
vn 0 1 0

vt 0 5.454545
vt 0 6.363636
vt -0.909091 5.454545
vt -0.909091 6.363636
vt 0 6.363636
vt 0 7.272727
vt -0.909091 6.363636
vt -0.909091 7.272727
vt 0 7.272727
vt 0 8.181818
vt -0.909091 7.272727
vt -0.909091 8.181818
vt 0 8.181818
vt 0 9.090909
vt -0.909091 8.181818
vt -0.909091 9.090909
vt 0 9.090909
vt 0 10
vt -0.909091 9.090909
vt -0.909091 10
vt -0.909091 5.454545
vt -0.909091 6.363636
vt -1.818182 5.454545
vt -1.818182 6.363636
vt -0.909091 6.363636
vt -0.909091 7.272727
vt -1.818182 6.363636
vt -1.818182 7.272727
vt -0.909091 7.272727
vt -0.909091 8.181818
vt -1.818182 7.272727
vt -1.818182 8.181818
vt -0.909091 8.181818
vt -0.909091 9.090909
vt -1.818182 8.181818
vt -1.818182 9.090909
vt -0.909091 9.090909
vt -0.909091 10
vt -1.818182 9.090909
vt -1.818182 10
vt -1.818182 5.454545
vt -1.818182 6.363636
vt -2.727273 5.454545
vt -2.727273 6.363636
vt -1.818182 6.363636
vt -1.818182 7.272727
vt -2.727273 6.363636
vt -2.727273 7.272727
vt -1.818182 7.272727
vt -1.818182 8.181818
vt -2.727273 7.272727
vt -2.727273 8.181818
vt -1.818182 8.181818
vt -1.818182 9.090909
vt -2.727273 8.181818
vt -2.727273 9.090909
vt -1.818182 9.090909
vt -1.818182 10
vt -2.727273 9.090909
vt -2.727273 10
vt -2.727273 5.454545
vt -2.727273 6.363636
vt -3.636364 5.454545
vt -3.63636 7.5
vt 0 0
vt 0 0
vt 0 0
vt 0 0
vt -2.727273 7.272727
vt -2.727273 8.181818
vt -3.63636 7.5
vt -3.636364 8.181818
vt -2.727273 8.181818
vt -2.727273 9.090909
vt -3.636364 8.181818
vt -3.636364 9.090909
vt -2.727273 9.090909
vt -2.727273 10
vt -3.636364 9.090909
vt -3.636364 10
vt -3.636364 5.454545
vt -3.63636 7.5
vt -4.545455 5.454545
vt -4.545456 7.5
vt -3.63636 0
vt -3.63636 0
vt -4.545456 0
vt -4.545456 0.5
vt -3.186238 7.5
vt -3.186241 8.181818
vt -4.223762 7.5
vt -4.223762 8.181816
vt -3.186241 8.181818
vt -3.186241 9.090909
vt -4.223762 8.181816
vt -4.223762 9
vt -3.147005 9.047068
vt -3.147005 9.955923
vt -4.184276 8.955664
vt -4.144937 9.955923
vt -4.545455 5.454545
vt -4.545456 7.5
vt -5.454545 5.454545
vt -5.454544 7.5
vt -5.454545 5.454545
vt -5.454544 7.5
vt -6.363636 5.454545
vt -6.363636 6.363636
vt -5.454544 7.5
vt -5.454544 7.5
vt -6.363636 6.363636
vt -6.36364 7.5
vt -6.363636 5.454545
vt -6.363636 6.363636
vt -7.272727 5.454545
vt -7.272727 6.363636
vt -6.363636 6.363636
vt -6.36364 7.5
vt -7.272727 6.363636
vt -7.272727 7.272727
vt -6.36364 7.5
vt -6.363636 8.181818
vt -7.272727 7.272727
vt -7.272727 8.181818
vt -6.363636 8.181818
vt -6.36364 9.5
vt -7.272727 8.181818
vt -7.272727 9.090909
vt -6.36364 9.5
vt -6.363636 10
vt -7.272727 9.090909
vt -7.272727 10
vt -7.272727 5.454545
vt -7.272727 6.363636
vt -8.181818 5.454545
vt -8.181818 6.363636
vt -7.272727 6.363636
vt -7.272727 7.272727
vt -8.181818 6.363636
vt -8.181818 7.272727
vt -7.272727 7.272727
vt -7.272727 8.181818
vt -8.181818 7.272727
vt -8.181818 8.181818
vt -7.272727 8.181818
vt -7.272727 9.090909
vt -8.181818 8.181818
vt -8.181818 9.090909
vt -7.272727 9.090909
vt -7.272727 10
vt -8.181818 9.090909
vt -8.181818 10
vt -8.181818 5.454545
vt -8.181818 6.363636
vt -9.090909 5.454545
vt -9.090909 6.363636
vt -8.181818 6.363636
vt -8.181818 7.272727
vt -9.090909 6.363636
vt -9.090909 7.272727
vt -8.181818 7.272727
vt -8.181818 8.181818
vt -9.090909 7.272727
vt -9.090909 8.181818
vt -8.181818 8.181818
vt -8.181818 9.090909
vt -9.090909 8.181818
vt -9.090909 9.090909
vt -8.181818 9.090909
vt -8.181818 10
vt -9.090909 9.090909
vt -9.090909 10
vt -9.090909 5.454545
vt -9.090909 6.363636
vt -10 5.454545
vt -10 6.363636
vt -9.090909 6.363636
vt -9.090909 7.272727
vt -10 6.363636
vt -10 7.272727
vt -9.090909 7.272727
vt -9.090909 8.181818
vt -10 7.272727
vt -10 8.181818
vt -9.090909 8.181818
vt -9.090909 9.090909
vt -10 8.181818
vt -10 9.090909
vt -9.090909 9.090909
vt -9.090909 10
vt -10 9.090909
vt -10 10

g Plane(Clone)
usemtl Default_Prototype
f 1/1/1 2/2/2 4/4/4 3/3/3
f 5/5/5 6/6/6 8/8/8 7/7/7
f 9/9/9 10/10/10 12/12/12 11/11/11
f 13/13/13 14/14/14 16/16/16 15/15/15
f 17/17/17 18/18/18 20/20/20 19/19/19
f 21/21/21 22/22/22 24/24/24 23/23/23
f 25/25/25 26/26/26 28/28/28 27/27/27
f 29/29/29 30/30/30 32/32/32 31/31/31
f 33/33/33 34/34/34 36/36/36 35/35/35
f 37/37/37 38/38/38 40/40/40 39/39/39
f 41/41/41 42/42/42 44/44/44 43/43/43
f 45/45/45 46/46/46 48/48/48 47/47/47
f 49/49/49 50/50/50 52/52/52 51/51/51
f 53/53/53 54/54/54 56/56/56 55/55/55
f 57/57/57 58/58/58 60/60/60 59/59/59
f 61/61/61 62/62/62 64/64/64 63/63/63
f 65/65/65 66/66/66 68/68/68 67/67/67
f 69/69/69 70/70/70 72/72/72 71/71/71
f 73/73/73 74/74/74 76/76/76 75/75/75
f 77/77/77 78/78/78 80/80/80 79/79/79
f 81/81/81 82/82/82 84/84/84 83/83/83
f 85/85/85 86/86/86 88/88/88 87/87/87
f 89/89/89 90/90/90 92/92/92 91/91/91
f 93/93/93 94/94/94 96/96/96 95/95/95
f 97/97/97 98/98/98 100/100/100 99/99/99
f 101/101/101 102/102/102 104/104/104 103/103/103
f 105/105/105 106/106/106 108/108/108 107/107/107
f 109/109/109 110/110/110 112/112/112 111/111/111
f 113/113/113 114/114/114 116/116/116 115/115/115
f 117/117/117 118/118/118 120/120/120 119/119/119
f 121/121/121 122/122/122 124/124/124 123/123/123
f 125/125/125 126/126/126 128/128/128 127/127/127
f 129/129/129 130/130/130 132/132/132 131/131/131
f 133/133/133 134/134/134 136/136/136 135/135/135
f 137/137/137 138/138/138 140/140/140 139/139/139
f 141/141/141 142/142/142 144/144/144 143/143/143
f 145/145/145 146/146/146 148/148/148 147/147/147
f 149/149/149 150/150/150 152/152/152 151/151/151
f 153/153/153 154/154/154 156/156/156 155/155/155
f 157/157/157 158/158/158 160/160/160 159/159/159
f 161/161/161 162/162/162 164/164/164 163/163/163
f 165/165/165 166/166/166 168/168/168 167/167/167
f 169/169/169 170/170/170 172/172/172 171/171/171
f 173/173/173 174/174/174 176/176/176 175/175/175
f 177/177/177 178/178/178 180/180/180 179/179/179
f 181/181/181 182/182/182 184/184/184 183/183/183
f 185/185/185 186/186/186 188/188/188 187/187/187
f 189/189/189 190/190/190 192/192/192 191/191/191

