# MagicaVoxel @ Ephtracy

# group
g Piston-0

# material
mtllib Piston-0.mtl
usemtl palette

# normals
vn -1 0 0
vn 1 0 0
vn 0 0 1
vn 0 0 -1
vn 0 -1 0
vn 0 1 0

# texcoords
vt 0.00976563 0.5
vt 0.0136719 0.5
vt 0.900391 0.5

# verts
v -15 0 20
v -15 0 10
v -15 1 19
v -15 1 11
v -15 29 19
v -15 29 11
v -15 30 20
v -15 30 10
v -2 13 10
v -2 13 -5
v -2 17 10
v -2 17 -5
v 2 13 10
v 2 13 -5
v 2 17 10
v 2 17 -5
v 15 0 20
v 15 0 10
v 15 1 19
v 15 1 11
v 15 29 19
v 15 29 11
v 15 30 20
v 15 30 10
v -15 0 20
v -15 30 20
v -14 1 20
v -14 29 20
v 14 1 20
v 14 29 20
v 15 0 20
v 15 30 20
v -15 0 10
v -15 30 10
v -14 1 10
v -14 29 10
v -3 12 10
v -3 18 10
v -2 13 10
v -2 17 10
v 2 13 10
v 2 17 10
v 3 12 10
v 3 18 10
v 14 1 10
v 14 29 10
v 15 0 10
v 15 30 10
v -2 13 -5
v -2 17 -5
v 2 13 -5
v 2 17 -5
v -15 0 20
v 15 0 20
v -14 0 19
v 14 0 19
v -14 0 11
v 14 0 11
v -15 0 10
v 15 0 10
v -2 13 10
v 2 13 10
v -2 13 -5
v 2 13 -5
v -2 17 10
v 2 17 10
v -2 17 -5
v 2 17 -5
v -15 30 20
v 15 30 20
v -14 30 19
v 14 30 19
v -14 30 11
v 14 30 11
v -15 30 10
v 15 30 10

# faces
f 3/2/1 2/2/1 1/2/1
f 4/2/1 2/2/1 3/2/1
f 5/2/1 3/2/1 1/2/1
f 5/1/1 4/1/1 3/1/1
f 6/2/1 2/2/1 4/2/1
f 6/1/1 4/1/1 5/1/1
f 7/2/1 5/2/1 1/2/1
f 7/2/1 6/2/1 5/2/1
f 8/2/1 2/2/1 6/2/1
f 8/2/1 6/2/1 7/2/1
f 11/3/1 10/3/1 9/3/1
f 12/3/1 10/3/1 11/3/1
f 13/3/2 14/3/2 15/3/2
f 15/3/2 14/3/2 16/3/2
f 17/2/2 18/2/2 19/2/2
f 19/2/2 18/2/2 20/2/2
f 17/2/2 19/2/2 21/2/2
f 19/1/2 20/1/2 21/1/2
f 20/2/2 18/2/2 22/2/2
f 21/1/2 20/1/2 22/1/2
f 17/2/2 21/2/2 23/2/2
f 21/2/2 22/2/2 23/2/2
f 22/2/2 18/2/2 24/2/2
f 23/2/2 22/2/2 24/2/2
f 27/2/3 26/2/3 25/2/3
f 28/2/3 26/2/3 27/2/3
f 29/2/3 27/2/3 25/2/3
f 29/1/3 28/1/3 27/1/3
f 30/2/3 26/2/3 28/2/3
f 30/1/3 28/1/3 29/1/3
f 31/2/3 29/2/3 25/2/3
f 31/2/3 30/2/3 29/2/3
f 32/2/3 26/2/3 30/2/3
f 32/2/3 30/2/3 31/2/3
f 33/2/4 34/2/4 35/2/4
f 35/2/4 34/2/4 36/2/4
f 35/1/4 36/1/4 37/1/4
f 37/1/4 36/1/4 38/1/4
f 37/2/4 38/2/4 39/2/4
f 39/2/4 38/2/4 40/2/4
f 37/2/4 39/2/4 41/2/4
f 40/2/4 38/2/4 42/2/4
f 35/1/4 37/1/4 43/1/4
f 41/2/4 42/2/4 43/2/4
f 37/2/4 41/2/4 43/2/4
f 42/2/4 38/2/4 44/2/4
f 43/2/4 42/2/4 44/2/4
f 38/1/4 36/1/4 44/1/4
f 33/2/4 35/2/4 45/2/4
f 35/1/4 43/1/4 45/1/4
f 43/1/4 44/1/4 45/1/4
f 44/1/4 36/1/4 46/1/4
f 45/1/4 44/1/4 46/1/4
f 36/2/4 34/2/4 46/2/4
f 33/2/4 45/2/4 47/2/4
f 45/2/4 46/2/4 47/2/4
f 46/2/4 34/2/4 48/2/4
f 47/2/4 46/2/4 48/2/4
f 49/3/4 50/3/4 51/3/4
f 51/3/4 50/3/4 52/3/4
f 55/2/5 54/2/5 53/2/5
f 56/2/5 54/2/5 55/2/5
f 57/2/5 55/2/5 53/2/5
f 57/1/5 56/1/5 55/1/5
f 58/2/5 54/2/5 56/2/5
f 58/1/5 56/1/5 57/1/5
f 59/2/5 57/2/5 53/2/5
f 59/2/5 58/2/5 57/2/5
f 60/2/5 54/2/5 58/2/5
f 60/2/5 58/2/5 59/2/5
f 63/3/5 62/3/5 61/3/5
f 64/3/5 62/3/5 63/3/5
f 65/3/6 66/3/6 67/3/6
f 67/3/6 66/3/6 68/3/6
f 69/2/6 70/2/6 71/2/6
f 71/2/6 70/2/6 72/2/6
f 69/2/6 71/2/6 73/2/6
f 71/1/6 72/1/6 73/1/6
f 72/2/6 70/2/6 74/2/6
f 73/1/6 72/1/6 74/1/6
f 69/2/6 73/2/6 75/2/6
f 73/2/6 74/2/6 75/2/6
f 74/2/6 70/2/6 76/2/6
f 75/2/6 74/2/6 76/2/6
