# MagicaVoxel @ Ephtracy

# group
g straight_0

# material
mtllib straight_0.mtl
usemtl palette

# normals
vn -1 0 0
vn 1 0 0
vn 0 0 1
vn 0 0 -1
vn 0 -1 0
vn 0 1 0

# texcoords
vt 0.720703 0.5
vt 0.955078 0.5
vt 0.982422 0.5
vt 0.986328 0.5

# verts
v -37.5 0 37.5
v -37.5 0 -37.5
v -37.5 2 35.5
v -37.5 2 -35.5
v -37.5 3 36.5
v -37.5 3 35.5
v -37.5 3 -35.5
v -37.5 3 -36.5
v -37.5 4 36.5
v -37.5 4 35.5
v -37.5 4 -35.5
v -37.5 4 -36.5
v -37.5 5 35.5
v -37.5 5 -35.5
v -37.5 6 37.5
v -37.5 6 -37.5
v 36.5 1 37.5
v 36.5 1 -37.5
v 36.5 2 35.5
v 36.5 2 -35.5
v 36.5 3 36.5
v 36.5 3 35.5
v 36.5 3 -35.5
v 36.5 3 -36.5
v 36.5 4 36.5
v 36.5 4 35.5
v 36.5 4 -35.5
v 36.5 4 -36.5
v 36.5 5 35.5
v 36.5 5 -35.5
v 36.5 6 37.5
v 36.5 6 -37.5
v -36.5 1 37.5
v -36.5 1 -37.5
v -36.5 2 35.5
v -36.5 2 -35.5
v -36.5 3 36.5
v -36.5 3 35.5
v -36.5 3 -35.5
v -36.5 3 -36.5
v -36.5 4 36.5
v -36.5 4 35.5
v -36.5 4 -35.5
v -36.5 4 -36.5
v -36.5 5 35.5
v -36.5 5 -35.5
v -36.5 6 37.5
v -36.5 6 -37.5
v 37.5 0 37.5
v 37.5 0 -37.5
v 37.5 2 35.5
v 37.5 2 -35.5
v 37.5 3 36.5
v 37.5 3 35.5
v 37.5 3 -35.5
v 37.5 3 -36.5
v 37.5 4 36.5
v 37.5 4 35.5
v 37.5 4 -35.5
v 37.5 4 -36.5
v 37.5 5 35.5
v 37.5 5 -35.5
v 37.5 6 37.5
v 37.5 6 -37.5
v -37.5 0 37.5
v -37.5 6 37.5
v -36.5 1 37.5
v -36.5 6 37.5
v 36.5 1 37.5
v 36.5 6 37.5
v 37.5 0 37.5
v 37.5 6 37.5
v -37.5 0 -37.5
v -37.5 6 -37.5
v -36.5 1 -37.5
v -36.5 6 -37.5
v 36.5 1 -37.5
v 36.5 6 -37.5
v 37.5 0 -37.5
v 37.5 6 -37.5
v -37.5 0 37.5
v 37.5 0 37.5
v -35.5 0 36.5
v -0.5 0 36.5
v 0.5 0 36.5
v 35.5 0 36.5
v -35.5 0 0.5
v -0.5 0 0.5
v 0.5 0 0.5
v 35.5 0 0.5
v -35.5 0 -0.5
v -0.5 0 -0.5
v 0.5 0 -0.5
v 35.5 0 -0.5
v -35.5 0 -36.5
v -0.5 0 -36.5
v 0.5 0 -36.5
v 35.5 0 -36.5
v -37.5 0 -37.5
v 37.5 0 -37.5
v -36.5 1 37.5
v 36.5 1 37.5
v -35.5 1 36.5
v -0.5 1 36.5
v 0.5 1 36.5
v 35.5 1 36.5
v -35.5 1 0.5
v -0.5 1 0.5
v 0.5 1 0.5
v 35.5 1 0.5
v -35.5 1 -0.5
v -0.5 1 -0.5
v 0.5 1 -0.5
v 35.5 1 -0.5
v -35.5 1 -36.5
v -0.5 1 -36.5
v 0.5 1 -36.5
v 35.5 1 -36.5
v -36.5 1 -37.5
v 36.5 1 -37.5
v -37.5 6 37.5
v -36.5 6 37.5
v 36.5 6 37.5
v 37.5 6 37.5
v -37.5 6 -37.5
v -36.5 6 -37.5
v 36.5 6 -37.5
v 37.5 6 -37.5

# faces
f 3/4/1 2/4/1 1/4/1
f 4/4/1 2/4/1 3/4/1
f 5/4/1 3/4/1 1/4/1
f 6/2/1 4/2/1 3/2/1
f 6/4/1 3/4/1 5/4/1
f 7/4/1 2/4/1 4/4/1
f 7/2/1 4/2/1 6/2/1
f 8/4/1 2/4/1 7/4/1
f 9/2/1 6/2/1 5/2/1
f 9/4/1 5/4/1 1/4/1
f 10/1/1 7/1/1 6/1/1
f 10/2/1 6/2/1 9/2/1
f 11/2/1 8/2/1 7/2/1
f 11/1/1 7/1/1 10/1/1
f 12/4/1 2/4/1 8/4/1
f 12/2/1 8/2/1 11/2/1
f 13/2/1 11/2/1 10/2/1
f 13/4/1 10/4/1 9/4/1
f 14/4/1 12/4/1 11/4/1
f 14/2/1 11/2/1 13/2/1
f 15/4/1 13/4/1 9/4/1
f 15/4/1 9/4/1 1/4/1
f 15/4/1 14/4/1 13/4/1
f 16/4/1 2/4/1 12/4/1
f 16/4/1 14/4/1 15/4/1
f 16/4/1 12/4/1 14/4/1
f 19/4/1 18/4/1 17/4/1
f 20/4/1 18/4/1 19/4/1
f 21/4/1 19/4/1 17/4/1
f 22/2/1 20/2/1 19/2/1
f 22/4/1 19/4/1 21/4/1
f 23/4/1 18/4/1 20/4/1
f 23/2/1 20/2/1 22/2/1
f 24/4/1 18/4/1 23/4/1
f 25/2/1 22/2/1 21/2/1
f 25/4/1 21/4/1 17/4/1
f 26/1/1 23/1/1 22/1/1
f 26/2/1 22/2/1 25/2/1
f 27/2/1 24/2/1 23/2/1
f 27/1/1 23/1/1 26/1/1
f 28/4/1 18/4/1 24/4/1
f 28/2/1 24/2/1 27/2/1
f 29/2/1 27/2/1 26/2/1
f 29/4/1 26/4/1 25/4/1
f 30/4/1 28/4/1 27/4/1
f 30/2/1 27/2/1 29/2/1
f 31/4/1 29/4/1 25/4/1
f 31/4/1 25/4/1 17/4/1
f 31/4/1 30/4/1 29/4/1
f 32/4/1 18/4/1 28/4/1
f 32/4/1 30/4/1 31/4/1
f 32/4/1 28/4/1 30/4/1
f 33/4/2 34/4/2 35/4/2
f 35/4/2 34/4/2 36/4/2
f 33/4/2 35/4/2 37/4/2
f 35/2/2 36/2/2 38/2/2
f 37/4/2 35/4/2 38/4/2
f 36/4/2 34/4/2 39/4/2
f 38/2/2 36/2/2 39/2/2
f 39/4/2 34/4/2 40/4/2
f 37/2/2 38/2/2 41/2/2
f 33/4/2 37/4/2 41/4/2
f 38/1/2 39/1/2 42/1/2
f 41/2/2 38/2/2 42/2/2
f 39/2/2 40/2/2 43/2/2
f 42/1/2 39/1/2 43/1/2
f 40/4/2 34/4/2 44/4/2
f 43/2/2 40/2/2 44/2/2
f 42/2/2 43/2/2 45/2/2
f 41/4/2 42/4/2 45/4/2
f 43/4/2 44/4/2 46/4/2
f 45/2/2 43/2/2 46/2/2
f 41/4/2 45/4/2 47/4/2
f 33/4/2 41/4/2 47/4/2
f 45/4/2 46/4/2 47/4/2
f 44/4/2 34/4/2 48/4/2
f 47/4/2 46/4/2 48/4/2
f 46/4/2 44/4/2 48/4/2
f 49/4/2 50/4/2 51/4/2
f 51/4/2 50/4/2 52/4/2
f 49/4/2 51/4/2 53/4/2
f 51/2/2 52/2/2 54/2/2
f 53/4/2 51/4/2 54/4/2
f 52/4/2 50/4/2 55/4/2
f 54/2/2 52/2/2 55/2/2
f 55/4/2 50/4/2 56/4/2
f 53/2/2 54/2/2 57/2/2
f 49/4/2 53/4/2 57/4/2
f 54/1/2 55/1/2 58/1/2
f 57/2/2 54/2/2 58/2/2
f 55/2/2 56/2/2 59/2/2
f 58/1/2 55/1/2 59/1/2
f 56/4/2 50/4/2 60/4/2
f 59/2/2 56/2/2 60/2/2
f 58/2/2 59/2/2 61/2/2
f 57/4/2 58/4/2 61/4/2
f 59/4/2 60/4/2 62/4/2
f 61/2/2 59/2/2 62/2/2
f 57/4/2 61/4/2 63/4/2
f 49/4/2 57/4/2 63/4/2
f 61/4/2 62/4/2 63/4/2
f 60/4/2 50/4/2 64/4/2
f 63/4/2 62/4/2 64/4/2
f 62/4/2 60/4/2 64/4/2
f 67/4/3 66/4/3 65/4/3
f 68/4/3 66/4/3 67/4/3
f 69/4/3 67/4/3 65/4/3
f 71/4/3 69/4/3 65/4/3
f 71/4/3 70/4/3 69/4/3
f 72/4/3 70/4/3 71/4/3
f 73/4/4 74/4/4 75/4/4
f 75/4/4 74/4/4 76/4/4
f 73/4/4 75/4/4 77/4/4
f 73/4/4 77/4/4 79/4/4
f 77/4/4 78/4/4 79/4/4
f 79/4/4 78/4/4 80/4/4
f 83/4/5 82/4/5 81/4/5
f 84/4/5 82/4/5 83/4/5
f 85/4/5 82/4/5 84/4/5
f 86/4/5 82/4/5 85/4/5
f 87/4/5 83/4/5 81/4/5
f 87/3/5 84/3/5 83/3/5
f 88/4/5 85/4/5 84/4/5
f 88/3/5 84/3/5 87/3/5
f 89/3/5 86/3/5 85/3/5
f 89/4/5 85/4/5 88/4/5
f 90/4/5 82/4/5 86/4/5
f 90/3/5 86/3/5 89/3/5
f 91/4/5 89/4/5 88/4/5
f 91/4/5 88/4/5 87/4/5
f 91/4/5 90/4/5 89/4/5
f 91/4/5 87/4/5 81/4/5
f 92/4/5 90/4/5 91/4/5
f 93/4/5 90/4/5 92/4/5
f 94/4/5 82/4/5 90/4/5
f 94/4/5 90/4/5 93/4/5
f 95/4/5 91/4/5 81/4/5
f 95/3/5 92/3/5 91/3/5
f 96/4/5 93/4/5 92/4/5
f 96/3/5 92/3/5 95/3/5
f 97/3/5 94/3/5 93/3/5
f 97/4/5 93/4/5 96/4/5
f 98/4/5 82/4/5 94/4/5
f 98/3/5 94/3/5 97/3/5
f 99/4/5 95/4/5 81/4/5
f 99/4/5 97/4/5 96/4/5
f 99/4/5 98/4/5 97/4/5
f 99/4/5 96/4/5 95/4/5
f 100/4/5 82/4/5 98/4/5
f 100/4/5 98/4/5 99/4/5
f 101/4/6 102/4/6 103/4/6
f 103/4/6 102/4/6 104/4/6
f 104/4/6 102/4/6 105/4/6
f 105/4/6 102/4/6 106/4/6
f 101/4/6 103/4/6 107/4/6
f 103/3/6 104/3/6 107/3/6
f 104/4/6 105/4/6 108/4/6
f 107/3/6 104/3/6 108/3/6
f 105/3/6 106/3/6 109/3/6
f 108/4/6 105/4/6 109/4/6
f 106/4/6 102/4/6 110/4/6
f 109/3/6 106/3/6 110/3/6
f 108/4/6 109/4/6 111/4/6
f 107/4/6 108/4/6 111/4/6
f 109/4/6 110/4/6 111/4/6
f 101/4/6 107/4/6 111/4/6
f 111/4/6 110/4/6 112/4/6
f 112/4/6 110/4/6 113/4/6
f 110/4/6 102/4/6 114/4/6
f 113/4/6 110/4/6 114/4/6
f 101/4/6 111/4/6 115/4/6
f 111/3/6 112/3/6 115/3/6
f 112/4/6 113/4/6 116/4/6
f 115/3/6 112/3/6 116/3/6
f 113/3/6 114/3/6 117/3/6
f 116/4/6 113/4/6 117/4/6
f 114/4/6 102/4/6 118/4/6
f 117/3/6 114/3/6 118/3/6
f 101/4/6 115/4/6 119/4/6
f 116/4/6 117/4/6 119/4/6
f 117/4/6 118/4/6 119/4/6
f 115/4/6 116/4/6 119/4/6
f 118/4/6 102/4/6 120/4/6
f 119/4/6 118/4/6 120/4/6
f 121/4/6 122/4/6 125/4/6
f 125/4/6 122/4/6 126/4/6
f 123/4/6 124/4/6 127/4/6
f 127/4/6 124/4/6 128/4/6
